<?xml version="1.0" encoding="iso-8859-1"?>
<!-- Generator: Adobe Illustrator 18.1.1, SVG Export Plug-In . SVG Version: 6.00 Build 0)  -->
<svg version="1.1" id="_x34_" xmlns="http://www.w3.org/2000/svg" xmlns:xlink="http://www.w3.org/1999/xlink" x="0px" y="0px"
	 viewBox="0 0 512 512" style="enable-background:new 0 0 512 512;" xml:space="preserve">
<g>
	<g>
		<g>
			<path style="fill:#7A7A7A;" d="M0,224.195c0.194-0.103,0.433-0.157,0.728-0.161C0.485,224.087,0.243,224.141,0,224.195z"/>
			<linearGradient id="SVGID_1_" gradientUnits="userSpaceOnUse" x1="0.728" y1="233.5511" x2="89.4496" y2="233.5511">
				<stop  offset="0" style="stop-color:#878787"/>
				<stop  offset="0.0303" style="stop-color:#DBDBDB"/>
				<stop  offset="0.0667" style="stop-color:#C7C7C7"/>
				<stop  offset="0.1939" style="stop-color:#ECECEC"/>
				<stop  offset="0.9576" style="stop-color:#808080"/>
			</linearGradient>
			<path style="fill:url(#SVGID_1_);" d="M69.229,269.937c-1.805,1.972-8.761-0.641-14.7-5.471
				c-11.537-8.348-22.496-17.514-32.756-27.372c-8.943-6.956-17.782-13.086-21.045-13.061c2.06-0.466,4.11-0.953,6.146-1.453
				c1.186-0.293,2.372-0.595,3.553-0.899c6.302-1.635,12.486-3.456,18.543-5.448c-0.632-5.013-1.1-9.984-1.417-14.908
				c-0.056-0.846-0.105-1.69-0.151-2.531c-0.041-0.75-0.076-1.498-0.111-2.244c9.684-0.678,20.254,6.007,26.972,10.445
				c10.612,8.717,21.857,16.537,33.556,23.399c4.443,3.468-1.585,5.709-1.783,4.765c-0.273,0.542-0.546,1.086-0.82,1.628
				c-0.338,0.676-0.678,1.356-1.017,2.034c-4.499,9.003-8.897,18.076-13.161,27.221c0,0-0.002-0.002-0.001,0.001
				c-0.322,0.691-0.645,1.381-0.966,2.074C69.789,268.724,69.508,269.331,69.229,269.937z"/>
			<path style="fill:#404040;" d="M61.303,257.973c5.704,4.621,9.735,10.001,7.927,11.964c3.306-6.554,6.668-13.082,10.07-19.577
				c1.819-1.969-2.833,2.418-8.346-1.95c-3.122-2.498-6.185-5.055-9.187-7.677c-5.268-4.602-7.298-9.346-5.257-11.064
				c-3.75,2.654-7.558,5.255-11.417,7.807c-2.113,1.663,1.024,7.515,6.566,12.375C54.808,252.624,58.027,255.33,61.303,257.973z"/>
		</g>
		<g>
			<linearGradient id="SVGID_2_" gradientUnits="userSpaceOnUse" x1="27.4021" y1="218.8082" x2="85.2162" y2="218.8082">
				<stop  offset="0" style="stop-color:#434343"/>
				<stop  offset="0.0303" style="stop-color:#929292"/>
				<stop  offset="0.0667" style="stop-color:#7E7E7E"/>
				<stop  offset="0.2242" style="stop-color:#858585"/>
				<stop  offset="0.4061" style="stop-color:#A2A2A2"/>
				<stop  offset="0.8667" style="stop-color:#7A7A7A"/>
				<stop  offset="0.9576" style="stop-color:#626262"/>
				<stop  offset="1" style="stop-color:#3F3F3F"/>
			</linearGradient>
			<path style="fill:url(#SVGID_2_);" d="M84.199,238.821c-0.663-0.528-1.315-1.034-1.958-1.543
				c-9.184-7.287-16.511-13.315-22.86-18.148c-6.338-4.842-11.686-8.482-16.639-11.26c-3.302-1.854-6.415-3.321-9.498-4.542
				c-1.902-0.754-3.786-1.406-5.692-2.002c-0.056-0.846-0.105-1.69-0.151-2.531c2.614,0.816,5.223,1.749,7.872,2.874
				c4.891,2.074,9.913,4.801,15.503,8.535c3.733,2.484,7.72,5.421,12.164,8.866c5.932,4.588,12.658,10.106,20.829,16.578
				c0.475,0.38,0.962,0.759,1.445,1.139C84.878,237.463,84.538,238.143,84.199,238.821z"/>
			<linearGradient id="SVGID_3_" gradientUnits="userSpaceOnUse" x1="6.8742" y1="244.8999" x2="71.0375" y2="244.8999">
				<stop  offset="0" style="stop-color:#434343"/>
				<stop  offset="0.0303" style="stop-color:#929292"/>
				<stop  offset="0.0667" style="stop-color:#7E7E7E"/>
				<stop  offset="0.2242" style="stop-color:#858585"/>
				<stop  offset="0.4061" style="stop-color:#A2A2A2"/>
				<stop  offset="0.8667" style="stop-color:#7A7A7A"/>
				<stop  offset="0.9576" style="stop-color:#626262"/>
				<stop  offset="1" style="stop-color:#3F3F3F"/>
			</linearGradient>
			<path style="fill:url(#SVGID_3_);" d="M70.072,268.118c-0.379-0.125-0.75-0.26-1.127-0.4c-1.649-0.612-3.271-1.346-4.762-2.104
				c-1.99-1.009-3.755-2.069-5.091-2.955c-0.768-0.508-1.389-0.961-1.868-1.349c-0.022-0.018-0.044-0.037-0.065-0.053
				c-1.114-0.918-2.194-1.815-3.254-2.701c-9.553-7.989-17.086-14.716-23.554-20.093c-6.456-5.391-11.818-9.452-16.784-12.41
				c-2.298-1.372-4.503-2.523-6.693-3.472c1.186-0.293,2.372-0.595,3.553-0.899c1.007,0.51,2.016,1.066,3.039,1.665
				c2.636,1.533,5.341,3.331,8.193,5.414c3.804,2.778,7.861,6.068,12.409,9.915c6.069,5.122,12.998,11.253,21.491,18.346
				c1.055,0.882,2.136,1.784,3.248,2.69c0.017,0.013,0.031,0.023,0.046,0.038c0.179,0.141,0.436,0.343,0.743,0.557
				c0.312,0.219,0.683,0.475,1.094,0.746c0.828,0.539,1.842,1.148,2.961,1.766c2.216,1.218,4.874,2.444,7.385,3.223
				C70.715,266.735,70.393,267.424,70.072,268.118z"/>
		</g>
	</g>
	<g>
		<g>
			<path style="fill:#7A7A7A;" d="M512,224.195c-0.19-0.105-0.437-0.153-0.728-0.161C511.515,224.087,511.759,224.142,512,224.195z"
				/>
			<linearGradient id="SVGID_4_" gradientUnits="userSpaceOnUse" x1="532.3181" y1="233.5515" x2="441.4052" y2="233.5515">
				<stop  offset="0" style="stop-color:#878787"/>
				<stop  offset="0.0303" style="stop-color:#DBDBDB"/>
				<stop  offset="0.0667" style="stop-color:#C7C7C7"/>
				<stop  offset="0.1939" style="stop-color:#ECECEC"/>
				<stop  offset="0.9576" style="stop-color:#808080"/>
			</linearGradient>
			<path style="fill:url(#SVGID_4_);" d="M442.771,269.937c1.808,1.973,8.763-0.642,14.7-5.471
				c11.538-8.348,22.496-17.514,32.756-27.372c8.941-6.95,17.791-13.081,21.045-13.061c-2.061-0.463-4.109-0.951-6.146-1.454
				c-1.19-0.293-2.374-0.593-3.552-0.898c-6.302-1.634-12.487-3.459-18.544-5.448c0.629-5.011,1.1-9.981,1.417-14.908
				c0.057-0.847,0.106-1.69,0.151-2.531c0.039-0.749,0.077-1.499,0.111-2.244c-9.682-0.676-20.258,6.007-26.972,10.445
				c-10.612,8.72-21.854,16.54-33.555,23.398c-4.441,3.474,1.586,5.705,1.782,4.765c0.273,0.542,0.548,1.086,0.82,1.628
				c0.34,0.674,0.678,1.356,1.017,2.034c4.499,9.002,8.896,18.072,13.162,27.221c0,0.001,0.001-0.002,0.001,0.001
				c0.323,0.69,0.643,1.38,0.965,2.073C442.213,268.724,442.49,269.33,442.771,269.937z"/>
			<path style="fill:#404040;" d="M450.696,257.974c-5.704,4.621-9.735,9.996-7.925,11.963c-3.305-6.559-6.667-13.084-10.068-19.578
				c-1.821-1.966,2.831,2.418,8.343-1.948c3.122-2.5,6.186-5.064,9.19-7.679c5.27-4.608,7.299-9.348,5.256-11.063
				c3.753,2.653,7.557,5.255,11.418,7.805c2.106,1.666-1.025,7.519-6.566,12.376C457.191,252.62,453.975,255.334,450.696,257.974z"
				/>
		</g>
		<g>
			<linearGradient id="SVGID_5_" gradientUnits="userSpaceOnUse" x1="493.7045" y1="218.8082" x2="444.6104" y2="218.8082">
				<stop  offset="0" style="stop-color:#434343"/>
				<stop  offset="0.0303" style="stop-color:#929292"/>
				<stop  offset="0.0667" style="stop-color:#7E7E7E"/>
				<stop  offset="0.2242" style="stop-color:#858585"/>
				<stop  offset="0.4061" style="stop-color:#A2A2A2"/>
				<stop  offset="0.8667" style="stop-color:#7A7A7A"/>
				<stop  offset="0.9576" style="stop-color:#626262"/>
				<stop  offset="1" style="stop-color:#3F3F3F"/>
			</linearGradient>
			<path style="fill:url(#SVGID_5_);" d="M427.801,238.821c0.663-0.519,1.316-1.042,1.958-1.544
				c9.182-7.281,16.51-13.318,22.86-18.147c6.338-4.841,11.69-8.479,16.639-11.26c3.3-1.852,6.414-3.324,9.498-4.542
				c1.897-0.76,3.788-1.411,5.692-2.002c0.057-0.847,0.106-1.69,0.151-2.531c-2.615,0.816-5.225,1.749-7.872,2.874
				c-4.892,2.071-9.914,4.796-15.503,8.535c-3.734,2.486-7.715,5.426-12.163,8.865c-5.93,4.589-12.655,10.111-20.829,16.577
				c-0.481,0.377-0.961,0.753-1.446,1.14C427.124,237.461,427.462,238.143,427.801,238.821z"/>
			<linearGradient id="SVGID_6_" gradientUnits="userSpaceOnUse" x1="524.4138" y1="244.8992" x2="469.6438" y2="244.8992">
				<stop  offset="0" style="stop-color:#434343"/>
				<stop  offset="0.0303" style="stop-color:#929292"/>
				<stop  offset="0.0667" style="stop-color:#7E7E7E"/>
				<stop  offset="0.2242" style="stop-color:#858585"/>
				<stop  offset="0.4061" style="stop-color:#A2A2A2"/>
				<stop  offset="0.8667" style="stop-color:#7A7A7A"/>
				<stop  offset="0.9576" style="stop-color:#626262"/>
				<stop  offset="1" style="stop-color:#3F3F3F"/>
			</linearGradient>
			<path style="fill:url(#SVGID_6_);" d="M441.929,268.117c0.376-0.131,0.751-0.255,1.126-0.399
				c1.653-0.617,3.269-1.346,4.763-2.105c1.991-1.009,3.754-2.068,5.091-2.956c0.768-0.506,1.39-0.963,1.866-1.347
				c0.021-0.018,0.043-0.037,0.065-0.053c1.112-0.918,2.195-1.821,3.257-2.701c9.555-7.991,17.09-14.715,23.552-20.093
				c6.457-5.391,11.819-9.456,16.784-12.41c2.298-1.365,4.506-2.523,6.693-3.473c-1.19-0.293-2.374-0.593-3.552-0.898
				c-1.008,0.511-2.021,1.065-3.04,1.665c-2.633,1.534-5.343,3.333-8.193,5.414c-3.8,2.777-7.862,6.068-12.408,9.913
				c-6.07,5.126-12.999,11.253-21.492,18.347c-1.056,0.883-2.14,1.775-3.249,2.69c-0.015,0.013-0.031,0.025-0.048,0.039
				c-0.179,0.144-0.43,0.338-0.743,0.558c-0.311,0.221-0.682,0.472-1.093,0.744c-0.828,0.539-1.845,1.148-2.963,1.768
				c-2.216,1.217-4.873,2.447-7.384,3.223C441.287,266.734,441.607,267.423,441.929,268.117z"/>
		</g>
	</g>
	<linearGradient id="SVGID_7_" gradientUnits="userSpaceOnUse" x1="45.0917" y1="258.0536" x2="466.9094" y2="258.0536">
		<stop  offset="0" style="stop-color:#878787"/>
		<stop  offset="0.0303" style="stop-color:#DBDBDB"/>
		<stop  offset="0.0667" style="stop-color:#C7C7C7"/>
		<stop  offset="0.2242" style="stop-color:#CFCFCF"/>
		<stop  offset="0.4061" style="stop-color:#ECECEC"/>
		<stop  offset="0.8667" style="stop-color:#C4C4C4"/>
		<stop  offset="0.9576" style="stop-color:#A8A8A8"/>
		<stop  offset="1" style="stop-color:#808080"/>
	</linearGradient>
	<path style="fill:url(#SVGID_7_);" d="M452.457,242.769c5.3-4.61,11.791-7.402,14.453-5.294
		c-14.161-11.42-27.694-23.383-40.577-35.827c-2.418-2.296-7.881-0.567-12.18,3.088c-42.481,36.634-100.316,57.704-158.151,57.465
		c-57.836,0.238-115.672-20.831-158.153-57.464c-4.295-3.65-9.762-5.383-12.18-3.089c-12.881,12.448-26.416,24.405-40.577,35.828
		c2.657-2.102,9.149,0.682,14.452,5.294C111.87,289.024,183.935,315.811,256,315.494
		C328.065,315.811,400.132,289.023,452.457,242.769z"/>
	<linearGradient id="SVGID_8_" gradientUnits="userSpaceOnUse" x1="81.2908" y1="235.7424" x2="430.7102" y2="235.7424">
		<stop  offset="0" style="stop-color:#434343"/>
		<stop  offset="0.0303" style="stop-color:#929292"/>
		<stop  offset="0.0667" style="stop-color:#7E7E7E"/>
		<stop  offset="0.2242" style="stop-color:#858585"/>
		<stop  offset="0.4061" style="stop-color:#A2A2A2"/>
		<stop  offset="0.8667" style="stop-color:#7A7A7A"/>
		<stop  offset="0.9576" style="stop-color:#626262"/>
		<stop  offset="1" style="stop-color:#3F3F3F"/>
	</linearGradient>
	<path style="fill:url(#SVGID_8_);" d="M418.28,209.154c4.404-3.752,9.985-5.594,12.43-3.318c-0.544-0.514-1.086-1.03-1.627-1.547
		c-2.435-2.28-7.97-0.477-12.338,3.233c-43.155,37.26-101.95,58.702-160.744,58.459c-58.795,0.245-117.59-21.195-160.746-58.457
		c-4.366-3.71-9.901-5.521-12.337-3.235c-0.54,0.518-1.085,1.035-1.627,1.547c2.444-2.276,8.025-0.435,12.429,3.32
		c43.555,37.632,102.918,59.295,162.28,59.048C315.363,268.452,374.725,246.787,418.28,209.154z"/>
	<linearGradient id="SVGID_9_" gradientUnits="userSpaceOnUse" x1="48.8675" y1="271.4765" x2="463.133" y2="271.4765">
		<stop  offset="0" style="stop-color:#434343"/>
		<stop  offset="0.0303" style="stop-color:#929292"/>
		<stop  offset="0.0667" style="stop-color:#7E7E7E"/>
		<stop  offset="0.2242" style="stop-color:#858585"/>
		<stop  offset="0.4061" style="stop-color:#A2A2A2"/>
		<stop  offset="0.8667" style="stop-color:#7A7A7A"/>
		<stop  offset="0.9576" style="stop-color:#626262"/>
		<stop  offset="1" style="stop-color:#3F3F3F"/>
	</linearGradient>
	<path style="fill:url(#SVGID_9_);" d="M448.889,239.488c5.209-4.518,11.606-7.202,14.244-5.083
		c-0.584-0.482-1.172-0.96-1.753-1.443c-2.626-2.13-8.987,0.514-14.149,4.985c-50.998,44.895-121.114,70.878-191.23,70.573
		c-70.117,0.306-140.233-25.677-191.23-70.572c-5.162-4.475-11.522-7.114-14.149-4.984c-0.583,0.481-1.17,0.96-1.754,1.442
		c2.637-2.119,9.038,0.561,14.244,5.083c51.42,45.324,122.154,71.56,192.889,71.249C326.735,311.049,397.47,284.812,448.889,239.488
		z"/>
</g>
</svg>
