<?xml version="1.0" encoding="iso-8859-1"?>
<!-- Generator: Adobe Illustrator 18.1.1, SVG Export Plug-In . SVG Version: 6.00 Build 0)  -->
<svg version="1.1" id="_x31_" xmlns="http://www.w3.org/2000/svg" xmlns:xlink="http://www.w3.org/1999/xlink" x="0px" y="0px"
	 viewBox="0 0 512 512" style="enable-background:new 0 0 512 512;" xml:space="preserve">
<g>
	<g>
		<g>
			<path style="fill:#750A00;" d="M0,224.195c0.192-0.109,0.437-0.154,0.728-0.161C0.483,224.088,0.242,224.141,0,224.195z"/>
			<linearGradient id="SVGID_1_" gradientUnits="userSpaceOnUse" x1="0.7279" y1="233.5507" x2="89.4505" y2="233.5507">
				<stop  offset="0" style="stop-color:#821700"/>
				<stop  offset="0.0303" style="stop-color:#D66B4A"/>
				<stop  offset="0.0667" style="stop-color:#C25736"/>
				<stop  offset="0.1939" style="stop-color:#E77C5B"/>
				<stop  offset="0.9576" style="stop-color:#7B1000"/>
			</linearGradient>
			<path style="fill:url(#SVGID_1_);" d="M69.23,269.938c-1.807,1.967-8.761-0.642-14.701-5.471
				c-11.538-8.355-22.494-17.504-32.756-27.372c-8.943-6.952-17.783-13.087-21.045-13.061c2.06-0.461,4.111-0.951,6.147-1.453
				c1.189-0.295,2.371-0.591,3.552-0.899c6.303-1.636,12.485-3.455,18.544-5.448c-0.631-5.01-1.101-9.983-1.418-14.908
				c-0.057-0.845-0.104-1.686-0.15-2.531c-0.038-0.751-0.077-1.496-0.11-2.244c9.684-0.679,20.256,6.01,26.972,10.444
				c10.612,8.719,21.857,16.54,33.557,23.399c4.443,3.474-1.583,5.706-1.784,4.765c-0.275,0.544-0.548,1.087-0.82,1.628
				c-0.34,0.676-0.677,1.358-1.016,2.034c-4.501,9.003-8.896,18.071-13.162,27.222c-0.001-0.001-0.002,0.002-0.001,0.001
				c-0.321,0.691-0.645,1.379-0.966,2.074C69.79,268.726,69.51,269.332,69.23,269.938z"/>
			<path style="fill:#3B0000;" d="M61.303,257.974c5.705,4.627,9.736,10,7.927,11.963c3.305-6.559,6.667-13.081,10.069-19.577
				c1.821-1.967-2.833,2.418-8.345-1.95c-3.12-2.5-6.185-5.054-9.188-7.677c-5.269-4.603-7.299-9.347-5.257-11.064
				c-3.751,2.658-7.559,5.255-11.417,7.807c-2.111,1.662,1.025,7.516,6.566,12.375C54.808,252.623,58.026,255.333,61.303,257.974z"
				/>
		</g>
		<g>
			<linearGradient id="SVGID_2_" gradientUnits="userSpaceOnUse" x1="27.4016" y1="218.8086" x2="85.2162" y2="218.8086">
				<stop  offset="0" style="stop-color:#3E0000"/>
				<stop  offset="0.0303" style="stop-color:#8C2100"/>
				<stop  offset="0.0667" style="stop-color:#780D00"/>
				<stop  offset="0.2242" style="stop-color:#801500"/>
				<stop  offset="0.4061" style="stop-color:#9D3211"/>
				<stop  offset="0.8667" style="stop-color:#750A00"/>
				<stop  offset="0.9576" style="stop-color:#5D0000"/>
				<stop  offset="1" style="stop-color:#3A0000"/>
			</linearGradient>
			<path style="fill:url(#SVGID_2_);" d="M84.2,238.822c-0.664-0.524-1.315-1.033-1.959-1.543
				c-9.187-7.286-16.507-13.314-22.86-18.148c-6.338-4.839-11.686-8.483-16.639-11.26c-3.3-1.848-6.415-3.32-9.497-4.542
				c-1.901-0.748-3.788-1.413-5.693-2.002c-0.057-0.845-0.104-1.686-0.15-2.531c2.614,0.816,5.224,1.749,7.873,2.874
				c4.895,2.074,9.911,4.803,15.503,8.535c3.735,2.48,7.719,5.425,12.165,8.866c5.933,4.59,12.656,10.109,20.829,16.577
				c0.476,0.38,0.96,0.757,1.446,1.139C84.876,237.463,84.539,238.145,84.2,238.822z"/>
			<linearGradient id="SVGID_3_" gradientUnits="userSpaceOnUse" x1="6.8747" y1="244.9004" x2="71.0374" y2="244.9004">
				<stop  offset="0" style="stop-color:#3E0000"/>
				<stop  offset="0.0303" style="stop-color:#8C2100"/>
				<stop  offset="0.0667" style="stop-color:#780D00"/>
				<stop  offset="0.2242" style="stop-color:#801500"/>
				<stop  offset="0.4061" style="stop-color:#9D3211"/>
				<stop  offset="0.8667" style="stop-color:#750A00"/>
				<stop  offset="0.9576" style="stop-color:#5D0000"/>
				<stop  offset="1" style="stop-color:#3A0000"/>
			</linearGradient>
			<path style="fill:url(#SVGID_3_);" d="M70.072,268.119c-0.38-0.129-0.75-0.26-1.127-0.401c-1.648-0.613-3.271-1.347-4.762-2.104
				c-1.989-1.005-3.755-2.069-5.091-2.955c-0.768-0.514-1.389-0.96-1.867-1.349c-0.022-0.022-0.044-0.032-0.066-0.053
				c-1.109-0.914-2.197-1.812-3.255-2.701c-9.556-7.995-17.087-14.717-23.553-20.094c-6.455-5.392-11.816-9.455-16.784-12.409
				c-2.296-1.37-4.503-2.523-6.693-3.472c1.189-0.295,2.371-0.591,3.552-0.899c1.008,0.516,2.015,1.068,3.038,1.665
				c2.636,1.531,5.345,3.33,8.193,5.414c3.802,2.773,7.862,6.069,12.41,9.915c6.069,5.126,13,11.253,21.492,18.346
				c1.056,0.886,2.133,1.776,3.248,2.69c0.015,0.013,0.032,0.023,0.046,0.038c0.18,0.142,0.435,0.342,0.743,0.557
				c0.316,0.217,0.68,0.472,1.094,0.746c0.828,0.538,1.843,1.148,2.962,1.766c2.214,1.22,4.873,2.446,7.385,3.224
				C70.716,266.735,70.392,267.424,70.072,268.119z"/>
		</g>
	</g>
	<g>
		<g>
			<path style="fill:#750A00;" d="M512,224.195c-0.193-0.106-0.437-0.156-0.728-0.161C511.516,224.09,511.756,224.144,512,224.195z"
				/>
			<linearGradient id="SVGID_4_" gradientUnits="userSpaceOnUse" x1="532.3182" y1="233.551" x2="441.4047" y2="233.551">
				<stop  offset="0" style="stop-color:#821700"/>
				<stop  offset="0.0303" style="stop-color:#D66B4A"/>
				<stop  offset="0.0667" style="stop-color:#C25736"/>
				<stop  offset="0.1939" style="stop-color:#E77C5B"/>
				<stop  offset="0.9576" style="stop-color:#7B1000"/>
			</linearGradient>
			<path style="fill:url(#SVGID_4_);" d="M442.77,269.938c1.807,1.969,8.763-0.644,14.701-5.471
				c11.538-8.355,22.495-17.504,32.756-27.372c8.942-6.951,17.79-13.077,21.045-13.061c-2.061-0.462-4.109-0.952-6.146-1.454
				c-1.189-0.295-2.373-0.59-3.552-0.898c-6.304-1.637-12.486-3.458-18.545-5.448c0.631-5.01,1.102-9.983,1.419-14.908
				c0.054-0.846,0.104-1.686,0.15-2.531c0.04-0.751,0.076-1.496,0.111-2.244c-9.682-0.679-20.259,6.009-26.972,10.444
				c-10.611,8.713-21.855,16.538-33.556,23.398c-4.441,3.478,1.583,5.706,1.783,4.765c0.274,0.544,0.546,1.087,0.82,1.628
				c0.34,0.676,0.678,1.358,1.017,2.034c4.501,9.003,8.896,18.073,13.163,27.221c0-0.003,0.002,0.004,0.001,0.001
				c0.322,0.691,0.644,1.381,0.966,2.073C442.21,268.726,442.49,269.333,442.77,269.938z"/>
			<path style="fill:#3B0000;" d="M450.695,257.975c-5.704,4.62-9.734,9.997-7.925,11.962c-3.306-6.559-6.665-13.081-10.067-19.578
				c-1.819-1.967,2.828,2.421,8.343-1.948c3.122-2.499,6.187-5.057,9.19-7.679c5.265-4.605,7.299-9.351,5.256-11.062
				c3.751,2.652,7.559,5.251,11.417,7.805c2.11,1.67-1.024,7.519-6.566,12.375C457.191,252.624,453.974,255.332,450.695,257.975z"/>
		</g>
		<g>
			<linearGradient id="SVGID_5_" gradientUnits="userSpaceOnUse" x1="493.7045" y1="218.8086" x2="444.6101" y2="218.8086">
				<stop  offset="0" style="stop-color:#3E0000"/>
				<stop  offset="0.0303" style="stop-color:#8C2100"/>
				<stop  offset="0.0667" style="stop-color:#780D00"/>
				<stop  offset="0.2242" style="stop-color:#801500"/>
				<stop  offset="0.4061" style="stop-color:#9D3211"/>
				<stop  offset="0.8667" style="stop-color:#750A00"/>
				<stop  offset="0.9576" style="stop-color:#5D0000"/>
				<stop  offset="1" style="stop-color:#3A0000"/>
			</linearGradient>
			<path style="fill:url(#SVGID_5_);" d="M427.8,238.822c0.666-0.522,1.316-1.039,1.959-1.544
				c9.185-7.287,16.51-13.318,22.859-18.147c6.338-4.842,11.688-8.483,16.639-11.26c3.3-1.848,6.415-3.324,9.498-4.542
				c1.899-0.756,3.787-1.408,5.693-2.002c0.054-0.846,0.104-1.686,0.15-2.531c-2.615,0.81-5.222,1.752-7.873,2.874
				c-4.892,2.07-9.914,4.793-15.502,8.535c-3.734,2.487-7.717,5.422-12.164,8.866c-5.93,4.588-12.657,10.11-20.829,16.577
				c-0.478,0.377-0.962,0.753-1.447,1.14C427.123,237.463,427.462,238.145,427.8,238.822z"/>
			<linearGradient id="SVGID_6_" gradientUnits="userSpaceOnUse" x1="524.414" y1="244.8994" x2="469.6436" y2="244.8994">
				<stop  offset="0" style="stop-color:#3E0000"/>
				<stop  offset="0.0303" style="stop-color:#8C2100"/>
				<stop  offset="0.0667" style="stop-color:#780D00"/>
				<stop  offset="0.2242" style="stop-color:#801500"/>
				<stop  offset="0.4061" style="stop-color:#9D3211"/>
				<stop  offset="0.8667" style="stop-color:#750A00"/>
				<stop  offset="0.9576" style="stop-color:#5D0000"/>
				<stop  offset="1" style="stop-color:#3A0000"/>
			</linearGradient>
			<path style="fill:url(#SVGID_6_);" d="M441.93,268.117c0.378-0.126,0.75-0.257,1.125-0.399c1.652-0.613,3.268-1.347,4.763-2.105
				c1.991-1.009,3.755-2.065,5.091-2.955c0.766-0.505,1.388-0.962,1.866-1.347c0.022-0.017,0.044-0.041,0.066-0.054
				c1.11-0.914,2.199-1.817,3.256-2.701c9.553-7.99,17.089-14.715,23.552-20.094c6.458-5.389,11.818-9.455,16.784-12.409
				c2.297-1.368,4.507-2.525,6.694-3.473c-1.189-0.295-2.373-0.59-3.552-0.898c-1.008,0.509-2.019,1.068-3.04,1.665
				c-2.635,1.533-5.345,3.331-8.192,5.414c-3.803,2.776-7.859,6.07-12.409,9.915c-6.068,5.125-12.996,11.253-21.491,18.346
				c-1.057,0.879-2.14,1.776-3.248,2.69c-0.016,0.013-0.032,0.024-0.048,0.039c-0.179,0.146-0.434,0.338-0.742,0.557
				c-0.311,0.222-0.68,0.471-1.093,0.745c-0.832,0.534-1.843,1.154-2.964,1.767c-2.216,1.217-4.872,2.446-7.384,3.223
				C441.286,266.735,441.608,267.424,441.93,268.117z"/>
		</g>
	</g>
	<linearGradient id="SVGID_7_" gradientUnits="userSpaceOnUse" x1="45.0917" y1="258.0532" x2="466.9088" y2="258.0532">
		<stop  offset="0" style="stop-color:#821700"/>
		<stop  offset="0.0303" style="stop-color:#D66B4A"/>
		<stop  offset="0.0667" style="stop-color:#C25736"/>
		<stop  offset="0.2242" style="stop-color:#CA5F3D"/>
		<stop  offset="0.4061" style="stop-color:#E77C5B"/>
		<stop  offset="0.8667" style="stop-color:#BF5432"/>
		<stop  offset="0.9576" style="stop-color:#A33817"/>
		<stop  offset="1" style="stop-color:#7B1000"/>
	</linearGradient>
	<path style="fill:url(#SVGID_7_);" d="M452.456,242.77c5.3-4.612,11.792-7.402,14.452-5.294
		c-14.161-11.417-27.695-23.381-40.577-35.827c-2.418-2.301-7.883-0.561-12.18,3.088c-42.481,36.634-100.316,57.705-158.151,57.466
		c-57.835,0.24-115.672-20.831-158.153-57.464c-4.298-3.656-9.762-5.382-12.18-3.089c-12.882,12.447-26.416,24.409-40.577,35.828
		c2.658-2.104,9.149,0.686,14.452,5.294c52.326,46.252,124.392,73.039,196.457,72.722
		C328.066,315.811,400.132,289.022,452.456,242.77z"/>
	<linearGradient id="SVGID_8_" gradientUnits="userSpaceOnUse" x1="81.2907" y1="235.7443" x2="430.7103" y2="235.7443">
		<stop  offset="0" style="stop-color:#3E0000"/>
		<stop  offset="0.0303" style="stop-color:#8C2100"/>
		<stop  offset="0.0667" style="stop-color:#780D00"/>
		<stop  offset="0.2242" style="stop-color:#801500"/>
		<stop  offset="0.4061" style="stop-color:#9D3211"/>
		<stop  offset="0.8667" style="stop-color:#750A00"/>
		<stop  offset="0.9576" style="stop-color:#5D0000"/>
		<stop  offset="1" style="stop-color:#3A0000"/>
	</linearGradient>
	<path style="fill:url(#SVGID_8_);" d="M418.28,209.155c4.406-3.758,9.983-5.595,12.43-3.319c-0.544-0.516-1.087-1.027-1.627-1.547
		c-2.434-2.279-7.972-0.481-12.337,3.233c-43.157,37.259-101.952,58.704-160.747,58.459
		c-58.794,0.245-117.589-21.196-160.744-58.457c-4.368-3.719-9.9-5.523-12.337-3.235c-0.541,0.517-1.083,1.036-1.627,1.547
		c2.444-2.278,8.027-0.435,12.429,3.32c43.556,37.638,102.918,59.3,162.281,59.054C315.363,268.454,374.726,246.792,418.28,209.155z
		"/>
	<linearGradient id="SVGID_9_" gradientUnits="userSpaceOnUse" x1="48.8676" y1="271.478" x2="463.1335" y2="271.478">
		<stop  offset="0" style="stop-color:#3E0000"/>
		<stop  offset="0.0303" style="stop-color:#8C2100"/>
		<stop  offset="0.0667" style="stop-color:#780D00"/>
		<stop  offset="0.2242" style="stop-color:#801500"/>
		<stop  offset="0.4061" style="stop-color:#9D3211"/>
		<stop  offset="0.8667" style="stop-color:#750A00"/>
		<stop  offset="0.9576" style="stop-color:#5D0000"/>
		<stop  offset="1" style="stop-color:#3A0000"/>
	</linearGradient>
	<path style="fill:url(#SVGID_9_);" d="M448.889,239.488c5.207-4.518,11.609-7.204,14.245-5.083c-0.587-0.48-1.17-0.96-1.754-1.444
		c-2.625-2.13-8.983,0.509-14.149,4.985c-50.997,44.894-121.114,70.877-191.23,70.57c-70.116,0.306-140.232-25.678-191.23-70.57
		c-5.162-4.479-11.523-7.113-14.149-4.984c-0.585,0.488-1.167,0.962-1.754,1.442c2.636-2.123,9.038,0.566,14.245,5.083
		c51.419,45.326,122.154,71.562,192.888,71.252C326.735,311.049,397.469,284.813,448.889,239.488z"/>
</g>
</svg>
